<svg xmlns="http://www.w3.org/2000/svg" width="340.31" height="30.307" viewBox="0 0 340.31 30.307"><g transform="translate(-260 -65)"><g transform="translate(-10271 -8326.847)"><path d="M33.869.258,28.709,20.9,24.068.258H17.347L12.4,20.9,7.719.258H0L7.936,29.185H16l4.6-17,4.424,17h8.108L41.024.258Z" transform="translate(10531 8392.051)"/><rect width="7.631" height="28.927" transform="translate(10575.326 8392.31)"/><path d="M50.754.258V18.169L40.044.258h-7.85V29.185h7.372V11.057L50.625,29.185h7.5V.258Z" transform="translate(10556.492 8392.051)"/><rect width="7.631" height="28.927" transform="translate(10620.357 8392.31)"/><path d="M56.027.258,75.411,30.1l0-29.845Z" transform="translate(10575.364 8392.051)" fill="#e3000f"/><path d="M66.845.258,86.229,30.1V.258Z" transform="translate(10583.931 8392.051)" fill="#e3000f"/></g><rect width="2.604" height="3.064" transform="translate(597.706 91.326)"/><path d="M106.852.258l-8.717,26.15L89.415.258H85.427V29.185H87.9V2.514l9.024,26.672h2.471l8.977-26.672V29.185h2.473V.258Z" transform="translate(327.645 65.204)"/><path d="M102.8.258V29.185H118.1V27.017H105.221V15.308h11.84v-2.17h-11.84V2.426h12.706V.258Z" transform="translate(341.397 65.204)"/><rect width="2.605" height="28.927" transform="translate(464.166 65.463)"/><path d="M135.892.258V25.586L121.319.258h-2.733V29.185h2.342V3.989l14.4,25.2h2.863V.258Z" transform="translate(353.901 65.204)"/><path d="M137.307.259h4.424c4.075,0,5.594.172,7.2.736A6.454,6.454,0,0,1,153.4,7.457c0,3.3-1.564,5.377-4.815,6.375,4.293,1.041,6.288,3.383,6.288,7.373,0,3.512-1.822,6.331-4.641,7.241-1.863.607-3.512.738-8.5.738h-4.424Zm2.428,12.749H142.6c3.121,0,4.643-.3,5.944-1.084a4.953,4.953,0,0,0,2.3-4.422,4.478,4.478,0,0,0-2.908-4.512c-1.213-.434-2.3-.563-5.463-.563h-2.733Zm0,14.007h3.037c3.643,0,5.29-.172,6.678-.781,1.691-.736,2.733-2.688,2.733-5.157A5.284,5.284,0,0,0,148.5,15.7c-1.346-.434-2.605-.52-5.768-.52h-2.994Z" transform="translate(368.725 65.205)"/><path d="M149.519.258h2.433V19.372c0,3.243.511,4.822,1.878,5.931a8.311,8.311,0,0,0,5.331,1.706A8.165,8.165,0,0,0,164.5,25.3c1.407-1.281,1.874-2.731,1.874-5.931l.045-2.218V.258H168.8V17.194l.045,2.048c0,3.5-.473,5.25-1.837,6.87-1.706,2.005-4.438,3.073-7.852,3.073-4.564,0-7.891-1.964-9.085-5.291a13.166,13.166,0,0,1-.557-4.652V.258Z" transform="translate(378.395 65.204)"/><path d="M163.464.259h4.381c4.557,0,5.77.129,7.719.779A7.138,7.138,0,0,1,180.381,8.2c0,3.815-2.082,6.461-6.2,7.805l7.934,13.184h-3.078l-7.762-12.837h-5.336V29.185h-2.473Zm2.473,13.919h2c3.861,0,4.813-.086,6.246-.563a5.327,5.327,0,0,0,3.512-5.42c0-2.473-1.086-4.338-2.992-5.074-1.476-.564-2.561-.693-6.68-.693h-2.082Z" transform="translate(389.437 65.205)"/><path d="M174.809,14.948c0-8.8,4.677-14.948,11.35-14.948s11.307,6.151,11.307,14.948c0,8.753-4.634,14.9-11.307,14.9s-11.35-6.151-11.35-14.9m2.686,0c0,7.407,3.594,12.693,8.664,12.693,5.024,0,8.624-5.286,8.624-12.693,0-7.452-3.6-12.738-8.624-12.738-5.069,0-8.664,5.286-8.664,12.738" transform="translate(398.42 65)"/><rect width="2.604" height="3.062" transform="translate(533.474 65.462)"/><rect width="2.602" height="3.062" transform="translate(539.099 65.462)"/></g></svg>